<?xml version="1.0" encoding="UTF-8"?>
<svg version="1.1" viewBox="0 0 1024 1024" width="1024" height="1024" xmlns="http://www.w3.org/2000/svg">
<path transform="translate(508,164)" d="m0 0h12l16 8 25 14 27 16 18 10 24 14 7 8 2 5v14l8-1h21l16 4 15 8 51 31 27 16 11 7 8 7 4 7 1 5v120l-3 9-4 6-7 6-28 16-8 5h-3v2l6 2 26 14 12 8 6 7 2 5v99l-4 10-7 9-10 7-27 15-26 14-28 15-22 12-8 4-4 1h-7l-10-4-8-5v21l-5 6-28 15-16 9-52 28-16 8-4 1h-13l-12-5-44-24-18-10-25-14-56-30-22-12-23-12-22-12-26-14-15-9-9-7-7-9-3-11v-103l4-8 9-8 22-12 12-7 1-2-5-2-25-14-10-8-5-7-2-5-1-6v-114l4-10 8-8 32-19 29-17 26-16 19-11 10-4h9l11 4 15 9 1 1 1-26 5-10 9-7 19-11 22-13 25-15 11-6 17-10zm3 109-21 12-18 10v15l23 12 5 3 6-2 27-16 17-10v-3l-28-16-8-5zm136 75-8 5v51l17 9 12 7 6-1 39-20 2-2v-11l-5-4-27-15-23-13-10-6zm-297 14-27 15-15 9v40l14 8 4 1 46-27 16-10v-15l-13-8-20-11zm156 66-24 13-10 6v68l8 5 7-3 20-10 22-12 21-11 1-1v-30l-15-9-25-14zm134 106-1 2v59l8 5 18 10 12 7 5-1 29-16 4-3v-23l-22-12-32-17-20-11zm-290 6-23 13-18 10v40l6 3 25-13 22-12 17-9 14-7 1-2-29-16-14-7zm143 70-21 11v46l18 10 16 9 6-1 23-13 14-7 3-2v-22l-28-15-23-13-6-3z" fill="#BC6806"/>
<path transform="translate(508,164)" d="m0 0h12l16 8 25 14 27 16 18 10 24 14 7 8 2 5v15l-16 5-23 11-29 15-19 11-14-8-24-14-4 1-29 16-7 4h-2v15l6 2 14 8-1 92 23 13 49 28-3-2-8-5 3-7 4-6 7-8h2l2-5h2v-2l11-9 6-6h2l1-4 3-3h2l2-5 5-5 6 2-3-2-15-9 4-2 25-13 16-9h2l1 5-1 46 6 2 25 14-5 4-20 10-19 10-27 14-32 17-16 8-1-30-23-13-19-11-5 2-21 11-9 5v68l7 4-4 4-34 17-19 10-26 13-7-1-16-9-20-11-4-1-23 13-17 9h-1l-1-45-19-11-17-10-1-4-5-2-25-14-10-8-5-7-2-5-1-6v-114l4-10 8-8 32-19 29-17 26-16 19-11 10-4h9l11 4 15 9 1 1 1-26 5-10 9-7 19-11 22-13 25-15 11-6 17-10zm-158 198-27 15-15 9v40l14 8 4 1 46-27 16-10v-15l-13-8-20-11z" fill="#1E2932"/>
<path transform="translate(768,513)" d="m0 0 6 1 11 6 9 7 5 7 1 3v99l-4 10-7 9-10 7-27 15-26 14-28 15-22 12-8 4-4 1h-7l-10-4-8-5v21l-5 6-28 15-16 9-52 28-4 2 1-3 5-5 4-5 5-11 2-11 1-154 1-26 1 3 17-5 10-5 9-3h2v-2l10-4 19-9 9-3h8l1-2 1 45 23 13 14 8 5-1 29-16 17-9h3v-2l7-4-5-4-34-20-9-5v-2l14-5 3 1-3 2 21-12 11-6 14-8 17-8z" fill="#F04514"/>
<path transform="translate(647,252)" d="m0 0h21l16 4 15 8 51 31 27 16 11 7 8 7 4 7 1 5v120l-2-4-3-10-8-11-12-10-19-12-24-14-15-9-5-2-21-12-25-14-17-10-5 1-23 12-22 12-7 3 20 11 1 2-6-2-4-2-2 4-3 1-2 5h-2l-1 3h-2l-1 4-8 7-6 5h-2l-1 3h-2v2h-2l-2 5h-2l-2 4-7 8-4 8 4 3 10 6-2 1-18-10-23-13-21-12-13-8 1-91 2-1 7 4 6-2 27-16 28-16 18-10 23-12 23-11 14-4z" fill="#C2B6A7"/>
<path transform="translate(702,405)" d="m0 0 2 1-1 4 3 9 4 11v2l3-1v59l-19 9-14 8-51 27-29 15-19 10-25 13-19 10-25 13-19 10-50 26-27 14-14 7h-3v-6l-4-7-1-7h-2l-3-11-3-3v-2l-3-1-6-11-2-16-1-5 1-1 1-8 6-2 1-3 54-27 19-10 22-11 19-10 29-15 22-12 31-16 22-12 20-10 19-10 27-14 19-10 12-6z" fill="#FEBC27"/>
<path transform="translate(470,622)" d="m0 0h2l1 45 28 15 5 3 6-1 23-13 14-7 3-1v97l-2 11-6 12-7 9-6 5-9 4-4 1h-13l-12-5-44-24-18-10-25-14-56-30-22-12-23-12-1-5 1-2-2-1 23-2 19-4 23-8 26-12 19-10 44-22z" fill="#DB3313"/>
<path transform="translate(325,265)" d="m0 0 3 1-9 7-7 13-5 18-1 8v61l2 13 1 40 15 8 5-2 16-9 20-12 17-10 6-3v71l14 8 10 6-2 1-4-2-1 5-7 13-7 9-10 8-6 5-5 4h-2l-2 4-2 2v9l4 3-5-1-29-15-24-14-32-18-10-6 2-1 9 4 4-15v-17l2-6v-18l1-9v-10-3l-26-15-14-10-13-13-8-14-1-6-1-20 4-10 8-8 32-19 29-17 26-16z" fill="#2B828D"/>
<path transform="translate(270,495)" d="m0 0h2v2l5 2 14 8 17 10 1 1v85l5 2 23 13 28 16 17 10 11 6 5 3-3 3-23 11-8 4-19 7-15 4-5 1h-30l-21-5-17-9-15-9-9-7-7-9-3-11v-103l4-8 9-8 22-12z" fill="#D8860F"/>
<path transform="translate(638,550)" d="m0 0h1l1 164-1 21-5 6-28 15-16 9-52 28-4 2 1-3 5-5 4-5 5-11 2-11 1-154 1-26 1 3 17-5 10-5 9-3h2v-2l10-4 19-9 9-3h8z" fill="#F77D08"/>
<path transform="translate(647,252)" d="m0 0h21l16 4 15 8 51 31 27 16 11 7 1 2-5-2-10-6-6-3-12-2h-17l-18 4-12 4-15 7-24 12-17 8-17 9-23 13-22 11-4-1-18-10-13-8-22-12-23-13-9-5 1-3 11-6 28-16 26-15 24-13 28-14 15-5z" fill="#F4EDE2"/>
<path transform="translate(508,164)" d="m0 0h12l16 8 25 14 27 16 18 10 24 14 7 8 2 5v15l-16 5-23 11-29 15-19 11-14-8-24-14-4 1-29 16-7 4h-2v-93l4-16 5-7 8-5 4-4 8-4z" fill="#121921"/>
<path transform="translate(489,172)" d="m0 0v3l-9 6-4 8-3 13-1 161-1 15h-1l-1-12-5 2-4-1-7 5-10 3h-12l-7-3-10-2-7-2-7-4-5-5-3-1v4h-2l-1 3h-1v-125l5-10 9-7 19-11 22-13 25-15 11-6z" fill="#374550"/>
<path transform="translate(702,405)" d="m0 0 2 1-1 4 3 9 4 11v2l3-1v59l-19 9-14 8-51 27-29 15-19 10-25 13-3-1 27-14 5-3h-3-9l-5-10-4-4-1-12-9-9 2-15-1-8-3-8v-3l-6 3h-2v-2l20-10 22-12 58-30 19-10 27-14 8-4z" fill="#FED053"/>
<path transform="translate(223,338)" d="m0 0h1l1 19 2 8 7 12 13 13 18 12 23 13-1 4v13l-1 10v15l-2 5v16l-4 16-9-3 22 12 15 9 43 24 13 6-1-2v-8l5-6 7-5h2l2-4 8-6 6-5 4-6 8-15 1-3 10 3 24 13 22 12 16 8 2 2-8 5-30 15-19 10-26 13-7-1-16-9-20-11-4-1-23 13-17 9h-1l-1-45-19-11-17-10-1-4-5-2-25-14-10-8-5-7-2-5-1-6z" fill="#114956"/>
<path transform="translate(470,622)" d="m0 0h2l1 45 28 15 6 4-3 3-33 17-19 10-14 7-19 7-8 2h-27l-10-3-7-1-56-30-7-4v-3l1-3-2-1 23-2 19-4 23-8 26-12 19-10 44-22z" fill="#1F2A33"/>
<path transform="translate(351,252)" d="m0 0h9l11 4 14 8 1 3v37l-2 3-1 12v16l2 7-15 8-10 6 9 4 6 9 2 6-6-1-19-11-5 2-24 13-10 6-6 2-2-13v-61l3-16 4-12 6-11 6-5 3-3 5-4 16-8z" fill="#114855"/>
<path transform="translate(492,320)" d="m0 0 11 6 17 9 10 6 12 6 11 7 11 6 23 13 4 1 26-13 16-9 5-3 3 1-27 15-6 3-3 3-12 6 20 11 1 2-6-2-4-2-2 4-3 1-2 5h-2l-1 3h-2l-1 4-8 7-6 5h-2l-1 3h-2v2h-2l-2 5h-2l-2 4-7 8-4 8 4 3 10 6-2 1-18-10-23-13-21-12-13-8 1-91z" fill="#42A0AA"/>
<path transform="translate(638,550)" d="m0 0h1v120l-1 34h-1l-1-56-6 5-6 1-8 6-3 1h-9l-10 2h-10l-3-1h-12l-3-2h-10l-1-1-1 46h-1l-1-48v-51l1-26 1 3 17-5 10-5 9-3h2v-2l10-4 19-9 9-3h8z" fill="#FC9808"/>
<path transform="translate(799,537)" d="m0 0h1v99l-4 10-7 9-10 7-27 15-16 9-4-3 1-3-2-1 2-10v-11l-3-12-1-11-2-7v-7l-2-10v-9l-5-1 4-4 22-12 23-13 18-12 7-7 4-8z" fill="#C92A12"/>
<path transform="translate(637,353)" d="m0 0h2l1 5-1 46 6 2 25 14-5 4-20 10-19 10-27 14-13 7-5-1-14-8-3-3-12-7 3-7 4-6 7-8h2l2-5h2v-2l11-9 6-6h2l1-4 3-3h2l2-5 5-5 6 2-3-2-15-9 4-2 25-13z" fill="#2A828E"/>
<path transform="translate(550,663)" d="m0 0h2v97l-2 11-6 12-7 9-6 5-9 4-4 1h-13l-12-5-44-24-18-10-25-14-28-15-8-4v-2l6 1 8 2 19 1v1l14-1 9-2 20-8 6-3 3 1-8 4 5 5 1 4h2l5 9 5 6 4 10 5 7v2h2l5 6v2l4 2 5 6 3 1v2h2l1 3 6-1 10-6 12-6 2-18h1l1 8 3-10 2-18v-38l-1-12-1-7-3-2 2-2v-3z" fill="#AE2312"/>
<path transform="translate(702,405)" d="m0 0 2 1-1 4 3 9 4 11v2l3-1v59l-19 9-14 8-10 5-6 2-6 3h-2l-3-19-2-12-1-15-5-8-3-7-2-2 1-10 3-8 6-4 14-7 4-4 30-15z" fill="#FEBB27"/>
<path transform="translate(223,338)" d="m0 0h1l1 19 2 8 7 12 13 13 18 12 23 13-1 4v13l-1 10v15l-2 5v16l-4 16-15-5v-2l-5-1-14-6-13-9-7-9-2-5-1-6z" fill="#185E6B"/>
<path transform="translate(751,338)" d="m0 0 12 2 11 3 14 7v2l5 2 4 3 2-1 1 12v75l-2-4h-2l-4-6-3-3v-2l-4-2-13-10-10-6-17-11-11-6-26-15-7-5-3-1v-2l6-2v-2l6-4 12-9 6-2 2-4 16-8z" fill="#DED4C5"/>
<path transform="translate(639,595)" d="m0 0 15 8 23 13 1 2-25 13-3 3h3l20-9 2 1-3 1 3 10 4 8 3 7 6 11 2 10h2v3h2l2 6h2v2h2l4 6 5 3 4 2v3l-26 14-19 10-4 1h-7l-10-4-8-6z" fill="#DB3413"/>
<path transform="translate(470,622)" d="m0 0h2l-1 19-10 10-17 10-16 8-22 12-14 6-4 1v44l-9-1-5-2-7-1-56-30-7-4v-3l1-3-2-1 23-2 19-4 23-8 26-12 19-10 44-22z" fill="#121921"/>
<path transform="translate(384,265)" d="m0 0 4 2 1 97 1-2h2v-4l5 1 4 5 7 3 22 6 5 1h8l12-4 5-4 4 1 4-1 3-3h1v38l-1 24h-1l-1-17-16 2-1 2h-2v2l-4 1-5 1-5-1-7 1-12 2-7 2-7 1-5-1-6-3-3-3-2-31-12-7v-3l-3-7-3-4v-2l-6-1-4-3 16-10 8-4h2l-3-7v-16l1-12 2-3v-37z" fill="#283540"/>
<path transform="translate(715,407)" d="m0 0 9 6 16 12 17 13 14 12 11 11 6 9 1 5-5 5-36 20-17 10-14 8-3 1z" fill="#EA8E06"/>
<path transform="translate(391,565)" d="m0 0h3l13 2 5 5 1 3 4-1 4 1v2l4 1 9 4 7 5 4 6 5 5 6 7 3 1 4 6 5 4-5 3-19 10-6 3v2l-36 18h-3v-6l-4-7-1-7h-2l-3-11-3-3v-2l-3-1-6-11-2-16-1-5 1-1 1-8 6-2 1-3z" fill="#E38707"/>
<path transform="translate(457,544)" d="m0 0h4v2l3 1 11 8 8 7 6 4 7 4 9 4 4 3 8-1 2 6 9 2-2 4-37 19-19 10-29 15-4 1 3-3 22-11 4-4-5-4-2-5-4-1-5-6-5-5-4-5-5-5-9-4-6-3v-2h-8l-4-6-5-2-10-1-2 1 2-4 10-4 4-1 13-6h8l9-2 13-3z" fill="#FCAD14"/>
<path transform="translate(713,492)" d="m0 0h1v27l17-10 14-8 3-1 21 11 1 2h-2l-1 5-19 9-19 11-23 13-6 2 3-3-5 1-8 2 3 3 25 14 22 13-5 4-4 1v2l-14 7h-2l-1-23-27-14-46-25-1-2 24-13 25-14 14-8z" fill="#411211"/>
<path transform="translate(325,265)" d="m0 0 3 1-9 7-7 13-3 10-2 1-3 12-1 3-8 6-1 2h-2l-1 5-7 9h-2l-2 5-2 3h-2l-2 5-9 8-5 7h-2l-2 5-5 12v7l-2 3-6-2-10-10-8-14-1-6-1-20 4-10 8-8 32-19 29-17 26-16z" fill="#2A828E"/>
<path transform="translate(638,670)" d="m0 0h1l1 44-1 21-5 6-28 15-16 9-52 28-4 2 1-3 5-5 4-5 5-11 2-11 1-13h1l1-21 2 1 16-6 10-3 8-3 5-1 9-3 11-1 17 1h4v-7h2z" fill="#E56009"/>
<path transform="translate(307,294)" d="m0 0h1l-1 10-1 8v61l2 13v40l-16-8-17-9-18-11-12-9-1-2 5 1 1-3 1-9 7-14h2l2-4 9-10 4-4 1-2h2l2-5 2-3h2l2-4 5-7 1-3h2l2-4 5-4h2l2-10z" fill="#42A0AA"/>
<path transform="translate(768,513)" d="m0 0 6 1 11 6 9 7 5 7-1 3-4 11-8 9-15 10-23 13-5 3-7-1-20-12-17-10-9-5v-2l14-5 3 1-3 2 21-12 11-6 14-8 17-8z" fill="#C92B12"/>
<path transform="translate(270,495)" d="m0 0h2v2l5 2 14 8 17 10 1 1v84l-5-2-23-13-19-12-17-13-9-8-7-10-2-6v-12l1 2h2v2l4 2 18 13 25 16 21 13 9 6v-16l-5-2-8-8-8-7-15-16-7-7-10-14-1-3 1-3z" fill="#B96506"/>
<path transform="translate(225,530)" d="m0 0h1l4 14 9 12 12 10 17 12 22 13 21 12 10 6 25 14 21 12 15 9 11 6 5 3-3 3-23 11-5 1 4-3-2-3-16-7-3-2-10-2-8-4-13-3-2 2-3-5h-1-5l-7-6-5-5-2-6-2-5-7-11-7-8-3-5v-5l5 1-24-15-13-10-2-1v-2l-4-2-7-7-5-8-1-4v-11z" fill="#E69713"/>
<path transform="translate(472,402)" d="m0 0 5 2 28 16 46 26 21 12 12 7-5 4-27 14h-1l-1-30-23-13-19-11-5 2-21 11-9 5-1 68-6-2-25-13-14-8-20-11v-3l4 1 33 1 5-3 2-4 3-1 5-5 3-1 2-4 2-2v-3l-3-1 3-1 1-2 2 1 1 4z" fill="#121921"/>
<path transform="translate(550,663)" d="m0 0h2v97l-2 11-6 12-7 9-6 5-9 4-4 1h-13l-2-2 5-5 6-7 2-1 2-4-4-1 10-6 2-18h1l1 8 3-10 2-18v-38l-1-12-1-7-3-2 2-2v-3z" fill="#811A10"/>
<path transform="translate(637,534)" d="m0 0h3l-1 16-1 2-10 2-12 4-20 10h-4v2l-16 6-7 4-12 3h-3l-2 58-5-2-23-12-23-13-6-3 1-3 24-12 22-12 31-16 19-10 27-14z" fill="#571611"/>
<path transform="translate(538,305)" d="m0 0 2 1-3 1-1 6 7 8 11 6 10 6 7 2 19 8 4 3 9 3 13 5h9l-3 3-5 2v3l-26 13-4-1-18-10-13-8-22-12-23-13-9-5 1-3 11-6 5-1z" fill="#DED3C3"/>
<path transform="translate(544,177)" d="m0 0 11 6 18 10 24 14 25 14 9 6-1 3-5-4-4-2-14-1-9 2-16 8-22 12-24 14-8 5-3-1h2l1-8 6-10 4-8h2l3-10 1-7 3-3 2-8h2l1-8 2-3h2v-5l-3-5-1-4h-8l-1-6z" fill="#1F2A33"/>
<path transform="translate(379,571)" d="m0 0 3 1-6 2v8l-1 5 1 4 3 16 3 5v2l4 2 4 5 2 6v5h2l3 9 3 5-1 6 2 1-3 1-13-8-11-6-25-14-23-13-11-6v-2l25-13 22-12z" fill="#D57F0C"/>
<path transform="translate(738,309)" d="m0 0h23l4 2v1l-10-1-1 3h-2v2l-12 6-5 4h-2v2l-5 3h-2v2l-5 4h-2v2l-9 5h-2v2l-4 3h-2v2l-6 4-8 7-3 1 6 4 11 6 13 8 24 14 14 8 14 9 13 9 9 7 7 9v2h2l2 6v8h-1l-3-10-8-11-12-10-19-12-24-14-15-9-5-2-21-12-25-14-19-11 3-2 42-21 15-7 18-6z" fill="#AEA597"/>
<path transform="translate(528,675)" d="m0 0 3 2-2 2 3 2 2 19v42l-3 19-2 6-2-1-2 10-8 5-10 5-7 4h-5v-4h-2v-2l-4-1-6-7-5-5-2-4h-2l-7-11-4-10-6-7-2-6h-2l-4-7-3-2 8-5 4-3 8-4 3 1-1 3 2 9 7 9 2 5 1 3h2l5 6v2l3 1 5 8 6 3 7 3 7-2 6-5 4-4 1-74h-5l5-4z" fill="#C92A13"/>
<path transform="translate(406,482)" d="m0 0 10 3 24 13 18 10-2 1-10-5-4 1-9 7-8 6-5 5-12 10h-2v2l-11 7-7 5-3 6 6 2 2 2-5-1-19-10-1-3-5-2v-9l5-6 7-5h2l2-4 8-6 6-5 4-6 8-15z" fill="#185E6B"/>
<path transform="translate(638,550)" d="m0 0h1v23l-16 8-29 15-19 10-18 10h-3l-1 26h-1v-36l1-26 1 3 17-5 10-5 9-3h2v-2l10-4 19-9 9-3h8z" fill="#C77006"/>
<path transform="translate(312,288)" d="m0 0 8 6 6 10 3 11 4 13 5 25v7l-2 8 3 1-23 13-7 4h-2l-2-13v-61l3-16z" fill="#0E3944"/>
<path transform="translate(394,565)" d="m0 0 13 2 5 5 1 3 4-1 4 1v2l4 1 9 4 7 5 4 6 5 5 6 7 3 1 4 6 5 4-5 3-19 10-6 3v2l-7 2-2-6v-7l-2-4-3-2v-2h-2v-2h-3l-4-6-7-4-4-7-4-2-2-7h-2l-3-6-1-5v-9z" fill="#F39707"/>
<path transform="translate(799,537)" d="m0 0h1v99l-4 10-7 9-10 7-4 1-3-1 1-9 3-15 1-9 1-3 1-32v-18l1-8-9 5-2-1 18-12 7-7 4-8z" fill="#AE2312"/>
<path transform="translate(639,595)" d="m0 0 15 8 23 13 1 2-25 13-3 3h3l3 1-3 2-1 16 2 13 1 3 1 22v31l-5-1-10-6-2-2z" fill="#8E1C10"/>
<path transform="translate(634,403)" d="m0 0 9 2 27 15-5 4-20 10-19 10-27 14-13 7-5-1-4-2-7-7 4-2 3-5 6-3 7-3 10-8 4-1v-2l8-4 4-5 5-2 2-5 6-5 4-4z" fill="#1F717D"/>
<path transform="translate(752,583)" d="m0 0 2 1-2 16v7l-3 12 1 10 2 7 2 11-2 9-1 4 1 12h5l-1 3-20 11-4-3 1-3-2-1 2-10v-11l-3-12-1-11-2-7v-7l-2-10v-9l-5-1 4-4 20-11z" fill="#DA3412"/>
<path transform="translate(254,398)" d="m0 0 9 3 25 14-1 4v13l-1 10v15l-2 5v16l-4 16-15-5v-2l-5-1-7-4 2-1h3l3-9 2-12v-14l-3-21-5-14v-7l-1-1z" fill="#1E707C"/>
<path transform="translate(715,407)" d="m0 0 9 6 5 5-5-2 4 6 10 9 3 5 6 9 2 8-2 6-2 7-2 2-1 4h-2l-2 4-11 11-1 2h-2l-1 4-2 6v13h-2v2l20-11 5-2-4 4-23 13-3 1z" fill="#F39607"/>
<path transform="translate(314,277)" d="m0 0 1 3-4 10-2 6-2 1-3 12-1 3-8 6-1 2h-2l-1 5-7 9h-2l-2 5-2 3h-2l-2 5-9 8-5 7h-2l-2 5-5 12v7l-2 3-6-2-10-10-1-4h3l5-15 6-8 5-5 3-1 2-5 5-3 8-11 4-4 7-14 4-6 7-6 4-5h2v-2l5-3 7-3 4-1z" fill="#33909C"/>
<path transform="translate(252,505)" d="m0 0 4 1-2 2 6 9 8 10 13 13 7 8 15 14 4 2v-28h1v45l-12-7-19-12-22-14-17-12-8-6v-2h-2l-1 7-3-4 1-6 7-8 7-5 12-6z" fill="#E29110"/>
<path transform="translate(223,530)" d="m0 0h1l2 16 7 10 8 7-1 2-6-4-1 4 3 7 2 13 1 13 2 14 3 14 2 5 4 11 3 11h2v2h2l3 6 4 4v2h-2l1 4-6-2-15-9-9-7-7-9-3-11z" fill="#CA780E"/>
<path transform="translate(702,405)" d="m0 0 2 1-1 4 3 9 4 11v2l3-1v59l-14 6-6 2-4 1 2-9 1-13v-14l-3-14-5-18-2-7-1-7-1-2 17-9z" fill="#E29111"/>
<path transform="translate(261,581)" d="m0 0 10 3 12 8-2 1-5-2 1 5 6 9 7 9 5 8 1 5 3 6 6 4v2l8 1 4-1-2 3 3 2 2-1 12 3 11 5 9 2 18 9v2l2 1-3 3-3 2-15 6-21 6h-8v-1l15-3 21-7 2-2-2-3-3-1v-2l-9-2-7-3-16-2-5 1-8-4-10-3-8-4-9-6-1-4h-2v-3l-4-1-4-4-6-14-2-12 1-3-2-10-2-2z" fill="#E29010"/>
<path transform="translate(470,218)" d="m0 0h1v102h-1l-1-22-4 4-5 1-6 2h-8l-10-2-9-5v-2h-2l-5-10 1-10 4-5 3-3 11-6 4-1 5-2 13 1 5 5v2h2l1 2z" fill="#46545E"/>
<path transform="translate(632,737)" d="m0 0 2 1-10 6-5 5-27 15-54 29-4 2 1-3 5-5 4-5 5-11 2-11 1-13 3-1h2l10-4 17-1 5-2 17-1 7 3 10-1z" fill="#EE4514"/>
<path transform="translate(234,560)" d="m0 0 6 4 5 3h-3l-1 4 2 11 3 8h-2l2 8 2 6 10 35 2 5 4 8 3 5 6 8 5 5 2 1h7l5-3 12-2 4 1 12 1 12-3 9 2 5 2 2 3-1 2 2 1-15 5-9 2v1h-30l-21-5-11-6-1-5h2l-6-8-1-4h-2v-2h-2l-4-11-5-13-1-4-4-17-1-13-1-10-2-13-3-9z" fill="#D5800C"/>
<path transform="translate(351,252)" d="m0 0h9l11 4 14 8-2 2-2-1-2 5-1 2h-2l-2 11-5 10-3 7-7 6-6-2-8-8v-2h-2v-2h-2l-11-16-3-3-2-1 1-5 1-3 16-9z" fill="#145663"/>
<path transform="translate(552,657)" d="m0 0h1l1 41h1v9h4l4-7h14l8-3 10-2 11-2 2-1 13 1 10-3h4l2-3v17l-1 7-4 1-22-1-11 2-6 3-5 1-10 3-9 3-14 5-1 21-2-2z" fill="#EF7008"/>
<path transform="translate(638,349)" d="m0 0 3 1-27 15-6 3-3 3-12 6 20 11 1 2-6-2-4-2-2 4-3 1-2 5h-2l-1 3h-2l-1 4-8 7-6 5h-2l-1 3h-2v2h-2l-2 5h-2l-2 4-7 8-4 8-5-1-11-7 2-1 4-16 7-6 7-8 3-3h2v-2h2l1-3h2l2-4h2v-2h2l5-10h2v-2l5-2 1-3-11-6 3-1 10 6 5-1 24-12 16-9z" fill="#33909C"/>
<path transform="translate(519,680)" d="m0 0h7v57h-1l-1-24-4 2-2-1-2 6h-3l-2 5-3 3-7 1-6-3h-2l-1-4-4-2-2-2-1-10 1-4-6 2-36 18-21 8-14 2h-17v-1l19-2 17-5 19-8 19-10 27-14 14-8z" fill="#E53C13"/>
<path transform="translate(715,386)" d="m0 0 4 1 23 13 20 12 15 10 11 9 8 10 3 7 1 5v7l-4 1v-2l-7-2-13-12-4-2v-2l-5-2-1-3h-2l-3-3-3-1v-2l-5-2-7-4-6-4v-2l-4-1-10-10-10-5-1-3-2-1 1-1z" fill="#894306"/>
<path transform="translate(254,483)" d="m0 0 6 2 5 2v2l6 2 22 12 15 9 43 24 17 8 12 7 14 7 1 1 7-1 22-11 19-10 34-17h3l-8 5-30 15-19 10-26 13-7-1-16-9-20-11-4-1-23 13-17 9h-1l-1-45-19-11-17-10-1-4-5-2-12-7z" fill="#161D24"/>
<path transform="translate(383,400)" d="m0 0 2 2-5 3v7l2 12v16l2 1-14 10-6 4-5-1-28-15-5-3v-2l46-27z" fill="#C3B7A8"/>
<path transform="translate(227,526)" d="m0 0 1 2h2v2l4 2 18 13 25 16 21 13 10 7v19l-2-2v-4l-6 2-21-12-20-13-13-10-6-3-7-8-5-9-1-3z" fill="#B96506"/>
<path transform="translate(759,506)" d="m0 0 11 6-2 1-1 5-19 9-19 11-23 13-6 2 3-3-5 1-8 2v2l-5-2-14-9-3-3 16-8 17-9 5 1h16l11-3 12-4 9-7h2v-2h2z" fill="#8E1C10"/>
<path transform="translate(466,453)" d="m0 0 3 1 2 9h1v52l-6-2-25-13-14-8-20-11v-3l4 1 33 1 5-3 2-4 3-1 5-5 3-1 2-4 2-2v-3l-3-1 3-1z" fill="#121921"/>
<path transform="translate(240,387)" d="m0 0 9 6 7 3 4 4-6-2 2 8 1 9 4 10 3 23v14l-3 15-3 5-6 1-7-4-4-5 5-1 2-5h2l-3-19-1-3-1-13-5-17-3-17 1-7z" fill="#1B6572"/>
<path transform="translate(386,472)" d="m0 0 6 1 10 4 10 6-2 1-4-2-1 5-7 13-7 9-10 8-6 5-5 4h-2l-2 4-2 2v9l4 3-5-1-13-7-4-5 1-7 6-4 1-2h2l2-5h2v-2h2v-2h2l1-3 6-4 4-2 2-4 4-7 4-16z" fill="#1F717D"/>
<path transform="translate(755,326)" d="m0 0h11l24 8 4-1 3 3v-4h3l1 5v120h-1l-1-14v-75l-1-5h-1l-2-7-7-4v-2l-6-2-10-5-20-4-9 2-14 8-3 3-10 6-10 8h-2v2l-4 3-6-1-1-3h2v-3l8-6 3-3 30-21 13-6z" fill="#CABEAF"/>
<path transform="translate(637,573)" d="m0 0h2v97l-1 34h-1l-1-102-4 4v4l-4-1-7 3h-3v2l-5 1-3-5-13-3h-15l-4-1-3 1v-2l33-17 19-10z" fill="#FCA10B"/>
<path transform="translate(370,728)" d="m0 0 6 1 8 2 19 1v1l14-1 9-2 4 1-4 2 8 7 5 7v2h2l10 14 5 5 2 6-1 2-6-2-29-16-18-10-26-14-8-4z" fill="#8C1C11"/>
<path transform="translate(756,440)" d="m0 0 5 3 8 5 13 13 6 9 1 5-5 5-36 20-4 2-5 2-3-1 5-5 1-4 5-9 9-11 3-7 1-11-2-10-1-2 1-2h-2z" fill="#E28607"/>
<path transform="translate(637,353)" d="m0 0h2l1 5-1 46-14-8-23-13-10-6 4-2 25-13z" fill="#131A23"/>
<path transform="translate(655,635)" d="m0 0h1l1 19h2l4 9 4 14 4 9 3 4 3 10 5 6v6l1 2-15 8-4 1h-7l-2-3v-36l-1-17h-1l-2-14 1-16z" fill="#C82B12"/>
<path transform="translate(539,671)" d="m0 0h1l-1 10 2 17v13l1 9-1 25-3 19-6 16-4 7-4 9 2 2-1 2-7 2h-13l-2-2 5-5 6-7 2-1 2-4-4-1 10-6 2-18h1l1 8 3-10 2-18v-38l-1-12-1-7-3-2 2-2v-3z" fill="#8E1C11"/>
<path transform="translate(545,577)" d="m0 0 2 1-22 12-27 14-19 10-6 4-5 4-4 4-29 15-56 28-19 8-19 6-15 3-21 2 1 5-6-1-23-12-1-2 19 4h30l17-4 17-6 11-5 60-30 19-10 35-18 19-10 29-15z" fill="#8E4506"/>
<path transform="translate(638,550)" d="m0 0h1v11l-3 3-14 4-14 7-10 4-16 8-9 4h-4v2l-12 4-3 3-1-20 1 3 17-5 10-5 9-3h2v-2l10-4 19-9 9-3h8z" fill="#8B4506"/>
<path transform="translate(678,416)" d="m0 0 4 1 1 9 3 7 4 16 3 14v19l-2 15h2l6-2-3 3-8 4-6 2-4 1 1-6-1-27-1-4-1-15-1-2v-11l-2-8v-11l3-3z" fill="#FCAD14"/>
<path transform="translate(650,410)" d="m0 0 6 2 14 8-5 4-20 10-19 10-27 14-13 7h-3l-1-3h2v-4l4-2h4l2-4 9-7 5-2 1-3 10-5 10-6 3-3h2l2-4 5-6h2v-2h3l1-3z" fill="#1A6370"/>
<path transform="translate(390,570)" d="m0 0h2l3 14 1 3h2l2 7 5 2 3 4v3l4 1 6 5 1 4h3v2h2l5 6 1 6 1 10-19 10-8 4-3-1 18-9-3-3-3-4v-2h-2l-3-11-7-8v-2h-3l-3-6-3-3-7-12-1-5 3-3v-7h2z" fill="#EA8E06"/>
<path transform="translate(746,500)" d="m0 0 6 2 7 4-1 3h-2v2l-9 6-5 3-15 5-7 1h-14l-5-1-25 13h-2l2-4 4-5 8-7h2v-2l11-9 10-5h2l1 12 5-2 24-14z" fill="#721F0E"/>
<path transform="translate(394,565)" d="m0 0 13 2 5 5 1 3 4-1 4 1v2l4 1 9 4 7 5 4 6 5 5 6 7 3 1 4 6 5 4-5 3-12 6-4-4-4-8-3-7-5-5-4-5-5-4-9-5-8-5-3-5 1-2-4-2-2-4-6-1z" fill="#FCA00A"/>
<path transform="translate(225,530)" d="m0 0h1l4 14 9 12 12 10 17 12 22 13 21 12 10 6 25 14 21 12 15 9 11 6 5 3-3 3-23 11-5 1 4-3 16-8v-6l-6-2-24-14-25-14-14-8-24-14-14-8-24-15-13-10-2-1v-2l-4-2-7-7-5-8-1-4v-11z" fill="#FEC741"/>
<path transform="translate(639,595)" d="m0 0 15 8 23 13 1 2-25 13-12 7-1 75h-1z" fill="#7C1A10"/>
<path transform="translate(637,534)" d="m0 0h3l-1 16-1 2-10 2-12 4-20 10h-4v2l-16 6-7 4-12 3h-3l-1-5 16-8 27-14 19-10z" fill="#701F0E"/>
<path transform="translate(481,314)" d="m0 0 11 6-1 91-2 1-13-8 3-1 1-21 1-29z" fill="#114855"/>
<path transform="translate(430,495)" d="m0 0 10 3 18 10-2 1-10-5-4 1-9 7-8 6-5 5-12 10h-2v2l-11 7-7 5-3 6 6 2 2 2-5-1-5-3v-2l-5-2-1-2 4-8 11-9 11-7 5-5h2l1-3 5-2 2-5 4-4 6-8z" fill="#145663"/>
<path transform="translate(566,754)" d="m0 0h13l10 3h9l1 3-22 12-26 14-16 9v-3l5-5 4-5 5-11 2-11 2 1 6-3 4-3z" fill="#D93613"/>
<path transform="translate(498,419)" d="m0 0 6 2 14 8 23 13 6 2 27 15 10 6-5 4-27 14h-1l-1-30-23-13-19-11-8 1 1-4-3-1z" fill="#13414C"/>
<path transform="translate(673,625)" d="m0 0 2 1-3 1 3 10 4 8 3 7 6 11 2 10h2v3h2l2 6h2v2h2l4 6 5 3 4 2v3l-15 8-4-2-3-8-2-6-4-7-1-6-6-9v-3h-2l-6-14-2-7-2-9-2-4 5-3 1-2z" fill="#E43B13"/>
<path transform="translate(384,265)" d="m0 0 4 2v109l-1 4-9-2-3-3v-2l-3-7-3-4v-2l-6-1-4-3 16-10 8-4h2l-3-7v-16l1-12 2-3v-37z" fill="#0E3944"/>
<path transform="translate(552,579)" d="m0 0h1v27l-1 33h-1l-1-29-6-2-5-2-9 1-5 3-13 1-7-2v-2l-5 2-3-1 53-28z" fill="#431210"/>
<path transform="translate(690,410)" d="m0 0 4 1-4 1v7l3 8 2 5 1 11 2 1 2 9 1 3 2 18v7h-2l2 7v4l6-3 2 1-12 6-6 2-4 1 2-9 1-13v-14l-3-14-5-18-2-7-1-7-1-2z" fill="#E79814"/>
<path transform="translate(319,524)" d="m0 0 6 2 18 10 7 4-3 3-24 13-10 5h-3v-25l4-4z" fill="#884307"/>
<path transform="translate(465,516)" d="m0 0 5 1h1l1 3h5l-4 3-40 20-19 10-15 7-3-3 7-7 8-6 8-4 12-9 9-6 10-4 3-2 10-2z" fill="#0E3A45"/>
<path transform="translate(630,534)" d="m0 0h7l-3 3-33 17-24 13-16 8-23 12-22 12-20 10-22 12-7 3-1-2 6-4 5-4 20-10 19-10 30-16 2-3 16-8 52-27 10-4z" fill="#BC6506"/>
<path transform="translate(270,495)" d="m0 0h2v2l5 2 14 8 17 10 1 1v17h-1l-1-5-1-2-3 1-15-6-14-5-10-7-5-4-1-3 5-5z" fill="#8A4506"/>
<path transform="translate(406,482)" d="m0 0 10 3 7 4-4 2-5 3h-2l-1 5-5 8h-2l-2 4-9 7-5 5h-2v2h-3v2l-4 1v2h-2v2h-2l-2 5-1 3h-2v5l6 2 7 4-3 1-12-7v-2l-5-2v-9l5-6 7-5h2l2-4 8-6 6-5 4-6 8-15z" fill="#1B6673"/>
<path transform="translate(716,402)" d="m0 0 6 2 6 4 8 7v2l4 1 4 4 6 3 8 5v2l5 1 1 3h2l4 4 2 1v2l5 2 12 11 7 3v2h2l1-2 1 3-5 9-5 5-2-1-2-7-8-10-11-11-11-9-17-13-18-13-5-4z" fill="#B66306"/>
<path transform="translate(726,312)" d="m0 0h5l-4 2-14 5-1 3h-2v2l-4 1v2l-8 5h-2v2l-6 4h-2v2l-8 6-7 6-1 4 6 4 1 2-4-1v-2l-4 2-23-13 3-2 42-21 15-7z" fill="#2D808B"/>
<path transform="translate(734,593)" d="m0 0h2l1 8-2 15 1 13 4 18 1 10v12l-2 10 1 3-4 4-4-3 1-3-2-1 2-10v-11l-3-12-1-11-2-7v-7l-2-10v-9l-5-1 4-4z" fill="#E53B13"/>
<path transform="translate(473,312)" d="m0 0 7 1 2 5v45l-1 28-1 13h-5l-2-2z" fill="#0E3944"/>
<path transform="translate(471,666)" d="m0 0 15 8 20 11v3l-33 17-2-1z" fill="#121921"/>
<path transform="translate(307,536)" d="m0 0h1v45l-12-7-19-12-22-14-8-6 2-1 8 5h5l-2 1v2l9 1 4-1 2 1 1-3 4-2 2-3 10 10 8 7 5 4 2 1z" fill="#E58A08"/>
<path transform="translate(759,506)" d="m0 0 3 2-2 1 1 4h-2v2l-19 10-9 3-12 3-19 6-11 7-3 3-1 3-4 1-11-8-2-2 16-8 17-9 5 1h16l11-3 12-4 9-7h2v-2h2z" fill="#811A0F"/>
<path transform="translate(715,417)" d="m0 0h1l1 9 7 1v3l3-1v2h2l1 7-1 6 1 8-2 8-4 11-5 8h-3v40h-2z" fill="#FCA30D"/>
<path transform="translate(264,519)" d="m0 0 6 2v2l6 2 15 8 8 2 5 1 2-1 1 3v26l-5-2-8-8-8-7-15-16-7-7z" fill="#C77006"/>
<path transform="translate(351,252)" d="m0 0h9l11 4 10 6v2h-9l-5 2-4 5-3 3-10 1-10-5-1-3-9-3v-2l15-8z" fill="#185E6B"/>
<path transform="translate(336,594)" d="m0 0 2 1 3 5 6 7v2l4 2 1 5h2l6 8 2 7 7 4-2 1-18-10-23-13-11-6v-2z" fill="#B86406"/>
<path transform="translate(528,675)" d="m0 0 3 2-2 2 3 2 2 19v42l-3 19-2 6-2-1-1-8v-78h-5l5-4z" fill="#AD2212"/>
<path transform="translate(341,591)" d="m0 0 3 1 3-1 5 7 2 1v3h2l3 5 4 4 5 7 3 6v2l3 1v2h2v5l3 1 2 5h3l1 5-4-1-12-7-3-3-6-4-2-7-4-5v-2h-2l-2-4-3-3-7-9-3-5z" fill="#C56E06"/>
<path transform="translate(638,561)" d="m0 0h1v8l-8 3-13 4-8 4-7 1v2l-8 3h-3v2l-11 6-9 4-11 5-5 3-1 2h-2v34h-1v-36l1-20h1l1 12 2-2 12-3v-2l11-4 24-12 8-3 10-5 14-4z" fill="#B86406"/>
<path transform="translate(227,526)" d="m0 0 1 2h2v2l4 2 18 13 25 16 13 8v2l4 2-1 2-13-4-6-3-6-2-6-4v-2l-5-2-5-5-10-6-6 1-1 2-1-3h-3l-4-9z" fill="#C56E06"/>
<path transform="translate(768,513)" d="m0 0 6 1 11 6 7 5-2 2 1 3-2 4-9 2-21-5-12-1 1-4 19-9z" fill="#AE2312"/>
<path transform="translate(702,405)" d="m0 0 2 1-1 4 3 9 4 11v2l3-1v33h-3l-2-7-2-4v-5h-2l-8-22-3-8-1-9 6-3z" fill="#D9870F"/>
<path transform="translate(383,400)" d="m0 0 2 2-5 3v7l2 12v16l2 1-11 8-4-2-1-22-3-9v-3l10-6v-2z" fill="#B4A798"/>
<path transform="translate(650,410)" d="m0 0 6 2 14 8-5 4-20 10-38 20-2-1 3-3 8-3-1-2 2-5h7l1-2 5-2 2-4 4-2h3l1-4 9-8 1-2h2z" fill="#185B67"/>
<path transform="translate(683,555)" d="m0 0 9 2 10 4 16 9 22 13-5 4-4 1v2l-14 7h-2l-1-23-27-14v-2z" fill="#6F1E0E"/>
<path transform="translate(462,622)" d="m0 0 5 1-3 3-29 15-56 28-19 8-19 6-15 3-21 2 1 5-6-1-23-12-1-2 19 4 35 1 19-5 23-8 10-5v-2l7-4 7-1 42-21 19-10 4-3z" fill="#CF7407"/>
<path transform="translate(739,306)" d="m0 0h17l12 2 2 2h-32l-15 4-20 7-25 12-19 10-16 8-21 11-13 7-2-1 23-13 9-5v-2l21-10 40-20 12-5 13-4z" fill="#CFC4B4"/>
<path transform="translate(647,637)" d="m0 0 3 1-4 2-1 42 3 25 2 10-1 2-5-2-4-3v-74z" fill="#801A0F"/>
<path transform="translate(512,684)" d="m0 0h2l1 4-16 8-27 14-28 14-21 8-14 2h-17v-1l19-2 17-5 19-8 19-10 27-14 14-8z" fill="#EC4214"/>
<path transform="translate(637,534)" d="m0 0h3l-1 12-2 3h-7l-16 6-9 4-5-1h-3v1 2h-3v2l-8 5-7-2 3-3 41-21z" fill="#541611"/>
<path transform="translate(772,454)" d="m0 0 4 1 9 10 3 5 1 5-5 5-18 10h-2l-1-4 1-3 5-5 1-3h2l1-11z" fill="#D47E0B"/>
<path transform="translate(566,566)" d="m0 0 2 1-10 6v4l-16 8-34 18-27 14-14 7-1-2 6-4 5-4 20-10 19-10 30-16 2-3 16-8z" fill="#BB6707"/>
<path transform="translate(488,411)" d="m0 0 12 6 24 14 20 11-3 1-27-15-14-8-1 4 2 4-1 2 4-1-3 3-14 7-3-1v-7l3-17-1-2z" fill="#1B2831"/>
<path transform="translate(711,506)" d="m0 0h2v12l-10 6-27 14h-2l2-4 4-5 8-7h2v-2l11-9z" fill="#591410"/>
<path transform="translate(308,313)" d="m0 0h1v31l4 1v2h2l3 16v9l-3 7 6-1-3 3-8 4h-2z" fill="#1C2730"/>
<path transform="translate(552,454)" d="m0 0 16 8 9 5-5 4-8 4v2l-11 5-1-1z" fill="#894306"/>
<path transform="translate(478,519)" d="m0 0 2 1-8 5-30 15-19 10-26 13-7-1-16-9-20-11-10-5 1-2 3-1 17 9 12 6 18 10 7-1 22-11 19-10 34-17z" fill="#2B2623"/>
<path transform="translate(712,491)" d="m0 0v3l-14 8-11 6-27 15-20 11-10 1-7 4-2-1 8-5 27-14 20-11 7-2 11-6 7-3z" fill="#C06A07"/>
<path transform="translate(490,319)" d="m0 0 2 2-1 90-2 1-8-5 2-1 2 1v-13l1-13-1-10 1-25 1-7v-13l2-1z" fill="#19606D"/>
<path transform="translate(492,320)" d="m0 0 11 6 17 9 1 2-6-2-13-7h-3l-1 21-3 10-1 20v33h-2l-1-91z" fill="#328E9A"/>
<path transform="translate(337,619)" d="m0 0 5 2 25 14 15 9 11 6 5 3-3 3-23 11-5 1 4-3 16-8v-6l-6-2-24-14-16-9v-2l-5-3z" fill="#FEC741"/>
<path transform="translate(639,595)" d="m0 0 11 6-2 1-1 11-5 10v9l1 2 8-4 2 1-12 7-1 75h-1z" fill="#491512"/>
<path transform="translate(370,728)" d="m0 0 6 1 8 2 19 1v1l10 1-4 3 2 5-1 5-4 2-28-15-8-4z" fill="#7C1B10"/>
<path transform="translate(623,577)" d="m0 0 2 1-4 4-27 14-19 10-18 10h-2v-6l4-1h3l1-3 16-7 8-5 5-1v-2l9-4h2v-2l8-2 5-1v-2z" fill="#D47D0A"/>
<path transform="translate(648,602)" d="m0 0 6 1 5 4-4 10-3 7-1 7-6 3-4-1v-10l5-10z" fill="#741F0E"/>
<path transform="translate(551,663)" d="m0 0h1v97l-2 11-6 12-7 9-3 3h-3l1-3 4-1v-6l3-3h2l1-12 7-14 1-1z" fill="#62190F"/>
<path transform="translate(247,541)" d="m0 0 5 2 5 3h5l-2 1v2l9 1 4-1 2 1 1-3 4-2 2-3 10 10-4 1h-6l-1 7 2 1v3l5 2-3 1-19-12-18-12z" fill="#EA8E06"/>
<path transform="translate(384,265)" d="m0 0 4 2v73h-4l-2-5v-16l1-12 2-3v-37z" fill="#0E3A45"/>
<path transform="translate(746,500)" d="m0 0 6 2 2 2-7 8-12 6-7 1-6-3v-2l23-13z" fill="#521511"/>
<path transform="translate(546,348)" d="m0 0 4 1 10 3 9 5 12 6 10 4 4 4-4 4-4-1-18-10-13-8-7-4z" fill="#CCBFAB"/>
<path transform="translate(545,444)" d="m0 0 6 2 21 12 12 7-5 4-14 7-2-1 9-5 3-3-22-12v27l-2 1-1-30-3-3 4-1-6-4z" fill="#1B262F"/>
<path transform="translate(309,293)" d="m0 0h1v8l-1 5v80h-2l-2-13v-61l3-16z" fill="#175E6A"/>
<path transform="translate(225,530)" d="m0 0h1l4 14 9 12 10 10 12 9 8 5-3 2-11-7-14-10v-2l-4-2-7-7-5-8-1-4v-11z" fill="#FDBB2A"/>
<path transform="translate(735,394)" d="m0 0 6 2 20 12 9 6 14 10 5 4 7 9v2h2l2 6v8h-1l-3-10-8-11-12-10-19-12-20-12z" fill="#93ACA7"/>
<path transform="translate(693,467)" d="m0 0 2 4 1 8 1-2h2l4 11v4l6-3 2 1-12 6-6 2-4 1 2-9 1-13z" fill="#FC9808"/>
<path transform="translate(379,571)" d="m0 0 3 1-6 2v8l-1 5 1 4 2 13-1 3-5-9-2-7v-3h-2l-3-5-3-1v-2z" fill="#D88610"/>
<path transform="translate(350,429)" d="m0 0h5l1 7v10l-2 4 3 1-2 1-15-8v-2l5-1 3-10z" fill="#CEC0AB"/>
<path transform="translate(355,584)" d="m0 0 1 2h2l2 14 3 8-2 1-5-5v-2h-2v-3l-4-2-4-5-4 1 1-3z" fill="#CB7A0E"/>
<path transform="translate(702,405)" d="m0 0 2 1-1 4 3 9 4 11v2l3-1v9h-3l-5-10v-3h-2l-4-10-3-7-4-1 6-3z" fill="#CD7C0F"/>
<path transform="translate(708,315)" d="m0 0 3 1-24 11-21 11-17 8-4 4-23 12-13 7-2-1 23-13 9-5v-2l21-10 40-20z" fill="#B3B1A5"/>
<path transform="translate(223,338)" d="m0 0h1l1 19 2 8 7 12 17 17-5-2-5-4-7-8-8-11-1-2-1 83h-1z" fill="#134C59"/>
<path transform="translate(391,565)" d="m0 0h1v5h-2l-2 6v7l-3 3v5l-3-4-4-4 1-4h-3v-5l6-2 1-3z" fill="#E39210"/>
<path transform="translate(566,566)" d="m0 0 2 1-10 6v4l-28 14-6 2-8 4 2-4 28-15 2-3 16-8z" fill="#BB6606"/>
<path transform="translate(276,678)" d="m0 0 19 4 25 2-2 3-13 1 1 5-6-1-23-12z" fill="#7E3908"/>
<path transform="translate(658,700)" d="m0 0 1 2h2l3 6 2 7 1 4-3 2h-5l5 1v1h-7l-2-3 1-18z" fill="#AE2313"/>
<path transform="translate(243,559)" d="m0 0 4 2 16 12 28 17 10 5 3-2 3 1 1-15h1v23l-5-2-23-13-19-12-17-13z" fill="#903A0B"/>
<path transform="translate(304,600)" d="m0 0 10 5 23 13v3l5 3-3 1-19-11-17-10v-3z" fill="#FECD4C"/>
<path transform="translate(667,541)" d="m0 0 7 4 11 7 11 6 1 2-5-2-5-1 1 2-6-2-19-10-1-3z" fill="#541712"/>
<path transform="translate(370,639)" d="m0 0 10 5 6 2 12 7-3 3-23 11-5 1 4-3 16-8v-6l-6-2-10-6z" fill="#FDB825"/>
<path transform="translate(598,551)" d="m0 0m-1 1 4 2-24 13-16 8-4 1-1-3 11-6 4-4 9-4 1 3 14-7z" fill="#BF6806"/>
<path transform="translate(709,462)" d="m0 0 4 2v26l-6 1-4 1-2-7 1-7 6 5 2-9v-7z" fill="#E28606"/>
<path transform="translate(254,483)" d="m0 0 6 2 5 2v2l6 2 22 12 3 2-1 5-11-6-12-7-1-4-5-2-12-7z" fill="#181F26"/>
<path transform="translate(549,667)" d="m0 0 2 3v41l-1 14h-1l-1-14v-43z" fill="#761F0E"/>
<path transform="translate(252,505)" d="m0 0 4 1-2 2 3 6-1 3-7 2-4-2v-2l-6 1-4-1 10-6z" fill="#DA8910"/>
<path transform="translate(655,635)" d="m0 0h1v49h-1l-1-17h-1l-2-14 1-16z" fill="#B12313"/>
<path transform="translate(662,416)" d="m0 0 8 4-5 4-16 8-2-1 2-7 6-2 3-5z" fill="#15505C"/>
<path transform="translate(303,687)" d="m0 0h9l5 1 2 10v2l-6-1-9-5v-3l1-3z" fill="#5B180F"/>
<path transform="translate(552,579)" d="m0 0h1v27l-1 33h-1v-57l-27 14-1-2z" fill="#20171D"/>
<path transform="translate(663,611)" d="m0 0 7 1 8 5-4 3-9 4-4-1z" fill="#871C10"/>
<path transform="translate(705,402)" d="m0 0 4 1-3 3 2 8 3 6 2-1v12l-3 1-6-17-2-6v-3l-4 1 3-3z" fill="#C46F06"/>
<path transform="translate(319,603)" d="m0 0 1 2 6 1v3l2 1 5 4 26 15 10 6-2 1-18-10-23-13-11-6v-2z" fill="#903C0A"/>
<path transform="translate(729,442)" d="m0 0 2 1 2 9-5 16-8 16-3 1-1-1v-5l3-1 7-14 3-12-1-9z" fill="#FC9707"/>
<path transform="translate(697,414)" d="m0 0 4 5 2 8h2l6 13h2v9l-2 2-2-2-3-10-4-8-4-10z" fill="#D6800C"/>
<path transform="translate(721,493)" d="m0 0 1 3-1 3v13h-2v2l20-11 5-2-4 4-23 13v-3-20z" fill="#F8990A"/>
<path transform="translate(683,555)" d="m0 0 9 2 10 4 16 9 2 3-5-2-11-6-1 3-16-8v-2z" fill="#6A1E0F"/>
<path transform="translate(636,360)" d="m0 0h2v40l-4-1-1-3 1-6v-10l1-5z" fill="#1E2932"/>
<path transform="translate(615,546)" d="m0 0h2v2l-16 8-5 3 1 2h-3v2l-8 5-7-2 3-3z" fill="#451714"/>
<path transform="translate(387,340)" d="m0 0h1v23l-6-8-2-8-2-2z" fill="#1F2A33"/>
<path transform="translate(690,530)" d="m0 0 3 2-5 3h-2v2l-4 3h-2l-2 6h-4l-6-4 2-2 16-8z" fill="#761F0E"/>
<path transform="translate(346,534)" d="m0 0 5 2 17 8 7 4-4 2-6-2-16-8-5-3 1-2z" fill="#17222B"/>
<path transform="translate(498,419)" d="m0 0 6 2 14 8-1 4-6-2-5-2-6 1 1-4-3-1z" fill="#113A45"/>
<path transform="translate(630,534)" d="m0 0h7l-3 3-31 16-2-1 11-6 5-6 4-2 5-2z" fill="#D57B07"/>
<path transform="translate(638,349)" d="m0 0 3 1-27 15-6 3-3 3-9 5h-6l3-3 24-12 16-9z" fill="#3D717A"/>
<path transform="translate(366,669)" d="m0 0 3 1-6 4-24 8-9 2h-8l3-2 17-4 17-6z" fill="#874007"/>
<path transform="translate(673,621)" d="m0 0 1 2h-2l1 3-22 10-2-1 1-3 16-9 5-1z" fill="#EB4314"/>
<path transform="translate(528,590)" d="m0 0 2 1-18 10-14 7-2-1 4-5 14-7 3 1z" fill="#C66D07"/>
<path transform="translate(638,670)" d="m0 0h1l1 44-1 21-2-1v-30z" fill="#F07308"/>
<path transform="translate(676,508)" d="m0 0 3 1-13 7-2 2-5 4-7 4h-5l-7 4-2-1 10-6 25-13z" fill="#9F4609"/>
<path transform="translate(310,520)" d="m0 0 6 1 4 3-5 8-1 2h-2l-1 4-1-2z" fill="#56150F"/>
<path transform="translate(697,477)" d="m0 0h2l4 11v4l6-3 2 1-12 6-2-1-1-4v-11z" fill="#F39808"/>
<path transform="translate(236,517)" d="m0 0 2 1v4l-4 4-3 1-1-1-2 2-1 7-3-4 1-6 5-6z" fill="#D9870F"/>
<path transform="translate(392,656)" d="m0 0 4 1v2l-9 2-3 3-4 3-13 6-2-1 7-6z" fill="#9C5106"/>
<path transform="translate(740,401)" d="m0 0 5 1 17 10 15 10 9 7-3 1-10-8-21-13-12-7z" fill="#602613"/>
<path transform="translate(487,386)" d="m0 0 2 1 1 25-9-5 2-1 2 1v-13l1-7z" fill="#155865"/>
<path transform="translate(708,315)" d="m0 0 3 1-24 11-21 11-4 2-4-1 42-21z" fill="#B9AC9C"/>
<path transform="translate(388,398)" d="m0 0h1l1 67 2 7-5-3z" fill="#131921"/>
<path transform="translate(308,579)" d="m0 0h1v23l-5-2-14-8-1-2 6 2 6 3 3-2 3 1z" fill="#8B4007"/>
<path transform="translate(528,675)" d="m0 0 3 2-3 3-1 52h-1v-52h-5l5-4z" fill="#C42E14"/>
<path transform="translate(781,423)" d="m0 0 4 2 5 5 6 7v2h2l2 6v8h-1l-3-10-8-11-7-8z" fill="#A8A99D"/>
<path transform="translate(739,306)" d="m0 0h17l12 2 2 2h-35z" fill="#DCD2C3"/>
<path transform="translate(462,622)" d="m0 0 5 1-3 3-29 15-5 2v-2l31-16z" fill="#C06A08"/>
<path transform="translate(536,441)" d="m0 0 10 2v2l6 4-1 2h-5l-11-7z" fill="#143C47"/>
<path transform="translate(713,489)" d="m0 0v3l-12 6-9 4-11 6-2-1 10-6 21-11z" fill="#934906"/>
<path transform="translate(574,460)" d="m0 0 10 5-5 4-14 7-2-1 9-5 3-3-3-3 3-1z" fill="#251E20"/>
<path transform="translate(321,612)" d="m0 0 9 2 7 4v3l5 3-3 1-18-11z" fill="#FFCC4B"/>
<path transform="translate(325,265)" d="m0 0 3 1-9 7-4 5-3 3-1-4h-2v-2z" fill="#308894"/>
<path transform="translate(307,687)" d="m0 0 10 1 2 10v2l-6-1v-3-7l-6-1z" fill="#421211"/>
<path transform="translate(422,728)" d="m0 0 3 1 1 2-17 3h-17v-1l19-2z" fill="#DC3713"/>
<path transform="translate(304,683)" d="m0 0h33v1l-11 2h-26z" fill="#AF5E06"/>
<path transform="translate(243,561)" d="m0 0 4 2 18 13 7 5 1 5-6-3-1-4-12-8-11-9z" fill="#FDC946"/>
<path transform="translate(642,528)" d="m0 0 4 1-6 5-10 1-7 4-2-1 8-5 9-4z" fill="#B35808"/>
<path transform="translate(665,516)" d="m0 0h5l-4 4-21 11-4 1 3-4 3-3h5l9-5z" fill="#CF7307"/>
<path transform="translate(702,478)" d="m0 0 5 4 2 8-6 2-2-7z" fill="#EA8E06"/>
<path transform="translate(729,591)" d="m0 0 1 4-9 5-3 3h-2l2-5 2-4 6-2z" fill="#ED4314"/>
<path transform="translate(715,583)" d="m0 0h1v9h2v-8l2 3 2 4 7-2-3 3-9 5h-2z" fill="#491E17"/>
<path transform="translate(724,536)" d="m0 0 5 1-1 2-11 6-4 2-4-1 10-6 2-3z" fill="#A42012"/>
<path transform="translate(533,434)" d="m0 0 4 1 4 4 11 6 15 9-2 1-18-10-13-8z" fill="#3C99A4"/>
<path transform="translate(450,462)" d="m0 0 1 2-1 3-7 4-5 1h-7v-2l11-3 6-1z" fill="#121921"/>
<path transform="translate(306,360)" d="m0 0h2l1 26h-2l-2-13v-9z" fill="#237581"/>
<path transform="translate(351,252)" d="m0 0 8 1v1l-10 2-10 4-6 4h-3v-2l15-8z" fill="#22707D"/>
<path transform="translate(377,550)" d="m0 0 9 4 12 6-1 3-7-1-1-4-12-6z" fill="#141D25"/>
<path transform="translate(333,527)" d="m0 0 13 6-1 3-2 1-12-7 1-2z" fill="#131C25"/>
<path transform="translate(693,476)" d="m0 0 2 4v17l-3 2-3-1 2-7 1-14z" fill="#FCA00A"/>
<path transform="translate(764,413)" d="m0 0 9 3 8 6 4 6-4-2-14-10z" fill="#A6B5AE"/>
<path transform="translate(704,548)" d="m0 0 3 1-6 3v2l-3 2h-7l-1-3z" fill="#B02212"/>
<path transform="translate(309,293)" d="m0 0h1v8l-2 15-3 1 1-13z" fill="#1B6774"/>
<path transform="translate(387,652)" d="m0 0 6 2-1 3-22 11-3-1 20-10z" fill="#FAAA14"/>
<path transform="translate(630,534)" d="m0 0h7l-3 3-12 6-1-3 5-4z" fill="#CF7606"/>
<path transform="translate(666,519)" d="m0 0 2 1-23 13v3l-5-2 5-4z" fill="#1C1B20"/>
<path transform="translate(614,219)" d="m0 0 6 1 11 7-1 3-5-4-4-2-9-1 1-2 1-1z" fill="#23303A"/>
<path transform="translate(250,570)" d="m0 0 7 2 12 8-3 2-11-7z" fill="#FEC236"/>
<path transform="translate(715,384)" d="m0 0 4 1 9 5 7 3 2 4-6-2-16-10z" fill="#B7B9AB"/>
<path transform="translate(441,606)" d="m0 0 4 4 5 9 3 5-2 1-4-4-4-8z" fill="#FD9808"/>
<path transform="translate(575,563)" d="m0 0m-2 1 4 1v2l-16 8-4 1 3-3 6-3h2l2-4z" fill="#D97C07"/>
<path transform="translate(735,394)" d="m0 0 6 2 8 5 1 3-5-1-8-5z" fill="#8BA9A5"/>
<path transform="translate(603,368)" d="m0 0 4 2-11 6h-6l3-3z" fill="#51787D"/>
<path transform="translate(365,635)" d="m0 0 5 2 12 7-2 1-9-5v2l-6-2-1-4z" fill="#FEC43C"/>
<path transform="translate(478,612)" d="m0 0 1 2-6 4-5 4-4 1v-4z" fill="#994F06"/>
<path transform="translate(247,541)" d="m0 0 5 2 5 3h5l-2 1v2l4 2 4 4-5-2-15-10z" fill="#EF9207"/>
<path transform="translate(616,540)" d="m0 0 3 1-5 3-4 4-7 1-4 1 3-3z" fill="#B25A08"/>
<path transform="translate(576,365)" d="m0 0 5 2 10 5v3l-4-1-10-6z" fill="#C5B8A7"/>
<path transform="translate(276,678)" d="m0 0 19 4 2 2-9-1v2l-5-2-7-4z" fill="#7B310B"/>
<path transform="translate(720,574)" d="m0 0 8 2 6 5v2l-9-2-2-4z" fill="#79190F"/>
<path transform="translate(681,507)" d="m0 0m-2 1h2v2l-4 2-4 4-7 1v-2z" fill="#BA6506"/>
<path transform="translate(254,483)" d="m0 0 6 2 5 2v2l6 2 4 3v2l-4-1v-2l-5-2-12-7z" fill="#1C313A"/>
<path transform="translate(544,177)" d="m0 0 9 5v2h-9l-1-6z" fill="#1E2831"/>
<path transform="translate(598,551)" d="m0 0m-1 1 4 2-21 11-2-1 17-9z" fill="#E68807"/>
<path transform="translate(623,577)" d="m0 0 2 1-4 4-10 5-2-1 5-3h2v-3z" fill="#CF7909"/>
<path transform="translate(227,526)" d="m0 0 1 2h2v2l3 1 1 4-4-1-1 4-2-4z" fill="#CD7A0E"/>
<path transform="translate(233,377)" d="m0 0 7 6 11 11-5-2-5-4-7-8z" fill="#155663"/>
<path transform="translate(377,731)" d="m0 0 26 1v1l-15 1h-6l-5-2z" fill="#A52112"/>
<path transform="translate(294,594)" d="m0 0 10 5-1 3-2 1-2-2-5-4-2-2z" fill="#FEC53D"/>
<path transform="translate(768,418)" d="m0 0 5 1 13 10-3 1-10-8z" fill="#55281D"/>
<path transform="translate(370,728)" d="m0 0 6 1 3 2 5 5-6-2-8-4z" fill="#572421"/>
<path transform="translate(651,630)" d="m0 0 2 1-12 7-2 3 1-8 3-1v2z" fill="#5E160F"/>
<path transform="translate(353,628)" d="m0 0 12 6 1 5-6-2v-3l-7-4z" fill="#FECB49"/>
<path transform="translate(285,548)" d="m0 0 5 2 2 3h-10l-1 2v-3z" fill="#E6900B"/>
<path transform="translate(274,494)" d="m0 0 6 2 2 1-1 3-2 1-7-4z" fill="#1A1C23"/>
<path transform="translate(636,360)" d="m0 0h2v15h-2l-1-5z" fill="#1F2A33"/>
<path transform="translate(366,669)" d="m0 0 3 1-6 4-5 2-3-1 6-4z" fill="#8D4706"/>
<path transform="translate(648,633)" d="m0 0 2 2v2l-7 3h-3l1-3z" fill="#C22813"/>
<path transform="translate(704,565)" d="m0 0 6 2 7 5-2 1-8-4h-3z" fill="#831D0F"/>
<path transform="translate(296,506)" d="m0 0 5 2 2 1-1 3-2 1-5-3z" fill="#141F27"/>
<path transform="translate(723,385)" d="m0 0 6 2 10 6-4 1-11-7z" fill="#E7DED2"/>
<path transform="translate(631,739)" d="m0 0 3 1-5 4-7 3-2-2z" fill="#D05611"/>
<path transform="translate(337,619)" d="m0 0 5 2 4 2-1 3-2 1-7-7z" fill="#FDC43D"/>
<path transform="translate(228,521)" d="m0 0 3 1-3 3-1 10-3-4 1-6z" fill="#EA9C16"/>
<path transform="translate(549,743)" d="m0 0h2v12h-2l-1-9z" fill="#761F0E"/>
<path transform="translate(389,659)" d="m0 0 4 1-4 3-5 4-2-4z" fill="#BC6606"/>
<path transform="translate(676,618)" d="m0 0 4 1-3 1-2 5h-3v-2l-4 1v-2z" fill="#F15E0D"/>
<path transform="translate(290,592)" d="m0 0 4 2 1 3 5 3-2 1-10-6 1-2z" fill="#FECC4D"/>
<path transform="translate(620,445)" d="m0 0 2 1-15 8-2-1 3-3 10-4z" fill="#1A4551"/>
<path transform="translate(781,423)" d="m0 0 4 2 5 5 3 4-4-1-8-9z" fill="#759C9B"/>
<path transform="translate(518,430)" d="m0 0 3 1 4 5-3 1-5-3-1-3z" fill="#134854"/>
<path transform="translate(351,252)" d="m0 0 8 1v1l-10 2-8 1 4-3z" fill="#28707B"/>
<path transform="translate(489,172)" d="m0 0v3l-9 6-3 3 2-6z" fill="#354752"/>
<path transform="translate(371,549)" d="m0 0h6v3h2l1 3-6-2-3-2z" fill="#1C2830"/>
<path transform="translate(726,429)" d="m0 0 1 2h2l1 7v3h-2l-3-11z" fill="#FD9808"/>
<path transform="translate(376,666)" d="m0 0h2v2l-11 5-2-1 8-5z" fill="#B15F06"/>
<path transform="translate(709,462)" d="m0 0 4 2v10h-2z" fill="#E28909"/>
<path transform="translate(773,419)" d="m0 0 7 2 5 7-4-2-8-6z" fill="#B3BBB2"/>
<path transform="translate(509,272)" d="m0 0h2l-1 3-8 4-2-2z" fill="#1B2A33"/>
</svg>
